<svg width="23" height="22" viewBox="0 0 23 22" fill="none" xmlns="http://www.w3.org/2000/svg">
<path d="M3.125 19.5L4.625 18M18.625 4L20.125 2.5M14.625 8L8.625 14M10.625 20V20C11.1702 19.4548 11.4429 19.1821 11.5886 18.888C11.8659 18.3285 11.8659 17.6715 11.5886 17.112C11.4429 16.8179 11.1703 16.5453 10.625 16L6.625 12C6.07975 11.4548 5.80713 11.1821 5.51303 11.0364C4.95348 10.7591 4.29652 10.7591 3.73697 11.0364C3.44287 11.1821 3.17025 11.4548 2.625 12V12C2.07975 12.5452 1.80713 12.8179 1.66139 13.112C1.38411 13.6715 1.38411 14.3285 1.66139 14.888C1.80713 15.1821 2.07975 15.4547 2.625 16L6.625 20C7.17025 20.5452 7.44287 20.8179 7.73697 20.9636C8.29652 21.2409 8.95348 21.2409 9.51303 20.9636C9.80713 20.8179 10.0798 20.5452 10.625 20ZM20.625 10V10C21.1702 9.45475 21.4429 9.18213 21.5886 8.88803C21.8659 8.32848 21.8659 7.67152 21.5886 7.11197C21.4429 6.81787 21.1703 6.54525 20.625 6L16.625 2C16.0798 1.45475 15.8071 1.18213 15.513 1.03639C14.9535 0.759106 14.2965 0.759106 13.737 1.03639C13.4429 1.18213 13.1702 1.45475 12.625 2V2C12.0798 2.54525 11.8071 2.81787 11.6614 3.11197C11.3841 3.67152 11.3841 4.32848 11.6614 4.88803C11.8071 5.18213 12.0797 5.45475 12.625 6L16.625 10C17.1702 10.5452 17.4429 10.8179 17.737 10.9636C18.2965 11.2409 18.9535 11.2409 19.513 10.9636C19.8071 10.8179 20.0798 10.5452 20.625 10Z" stroke="black" stroke-width="1.5" stroke-linecap="round" stroke-linejoin="round"/>
</svg>
