<svg width="251" height="75" viewBox="0 0 251 75" fill="none" xmlns="http://www.w3.org/2000/svg">
<path d="M27.5 15.7998C33.4332 15.7998 38.4663 17.1332 42.5996 19.7998C46.7328 22.4664 49.8996 25.9996 52.0996 30.3994C54.2996 34.7327 55.4004 39.4664 55.4004 44.5996V50.3994H16.2314C16.4431 51.5048 16.732 52.5385 17.0996 53.5C17.9662 55.6998 19.2998 57.3996 21.0996 58.5996C22.8995 59.7996 25.2331 60.3994 28.0996 60.3994C30.6329 60.3994 32.6998 59.9663 34.2998 59.0996C35.9665 58.2329 37.1331 57.0663 37.7998 55.5996H54.4004C53.6004 59.3329 51.9996 62.6663 49.5996 65.5996C47.2663 68.5329 44.2663 70.8333 40.5996 72.5C36.9997 74.1666 32.8328 75 28.0996 75C23.4331 75 19.3001 74.1995 15.7002 72.5996C12.1002 70.9996 9.06628 68.8329 6.59961 66.0996C4.13306 63.3663 2.23368 60.2993 0.900391 56.8994C0.799799 56.6294 0.704907 56.3582 0.612305 56.0869L20.2881 16.5879C22.5392 16.0635 24.943 15.7998 27.5 15.7998ZM112.715 15.7998C118.648 15.7998 123.681 17.1332 127.814 19.7998C131.948 22.4664 135.114 25.9996 137.314 30.3994C139.514 34.7327 140.615 39.4664 140.615 44.5996V50.3994H101.446C101.658 51.5048 101.947 52.5385 102.314 53.5C103.181 55.6998 104.515 57.3996 106.314 58.5996C108.114 59.7996 110.448 60.3994 113.314 60.3994C115.848 60.3994 117.915 59.9663 119.515 59.0996C121.181 58.2329 122.348 57.0663 123.015 55.5996H139.615C138.815 59.3329 137.214 62.6663 134.814 65.5996C132.481 68.5329 129.481 70.8333 125.814 72.5C122.215 74.1666 118.048 75 113.314 75C108.648 75 104.515 74.1995 100.915 72.5996C97.315 70.9996 94.2811 68.8329 91.8145 66.0996C89.3479 63.3663 87.4485 60.2993 86.1152 56.8994C84.8486 53.4995 84.2148 49.9993 84.2148 46.3994V44.3994C84.2149 40.6663 84.8487 37.1 86.1152 33.7002C87.4486 30.2336 89.3149 27.1666 91.7148 24.5C94.1815 21.8334 97.1815 19.7335 100.715 18.2002C104.248 16.6002 108.248 15.7998 112.715 15.7998ZM224.492 15.7998C230.425 15.7998 235.459 17.1332 239.592 19.7998C243.725 22.4664 246.892 25.9996 249.092 30.3994C249.819 31.8309 250.423 33.3074 250.909 34.8262L243.152 50.3994H213.224C213.435 51.5048 213.724 52.5385 214.092 53.5C214.958 55.6998 216.292 57.3996 218.092 58.5996C219.892 59.7996 222.225 60.3994 225.092 60.3994C227.625 60.3994 229.692 59.9663 231.292 59.0996C232.959 58.2329 234.125 57.0663 234.792 55.5996H240.562L231.151 74.4893C229.247 74.8284 227.227 75 225.092 75C220.425 75 216.292 74.1995 212.692 72.5996C209.092 70.9996 206.058 68.8329 203.592 66.0996C201.125 63.3663 199.226 60.2993 197.893 56.8994C196.626 53.4995 195.992 49.9993 195.992 46.3994V44.3994C195.992 40.6663 196.626 37.1 197.893 33.7002C199.226 30.2336 201.092 27.1666 203.492 24.5C205.959 21.8334 208.959 19.7335 212.492 18.2002C216.026 16.6002 220.026 15.7998 224.492 15.7998ZM78.9932 73H60.793V13.2002H54.5928V0H78.9932V73ZM168.474 57.7998H170.664L179.722 17.7998H197.122L183.521 73H155.021L139.222 17.7998H157.822L168.474 57.7998ZM27.5 30.3994C25.1001 30.3994 23.0001 30.9664 21.2002 32.0996C19.4669 33.1662 18.1335 34.8331 17.2002 37.0996C16.7615 38.1336 16.4278 39.3006 16.1953 40.5996H38.2617C38.0451 39.3128 37.7249 38.1459 37.2998 37.0996C36.4998 34.8997 35.2662 33.2329 33.5996 32.0996C31.9997 30.9664 29.9665 30.3994 27.5 30.3994ZM112.715 30.3994C110.315 30.3994 108.215 30.9664 106.415 32.0996C104.682 33.1662 103.348 34.8331 102.415 37.0996C101.976 38.1336 101.643 39.3006 101.41 40.5996H123.477C123.26 39.3128 122.94 38.1459 122.515 37.0996C121.715 34.8997 120.481 33.2329 118.814 32.0996C117.215 30.9664 115.181 30.3994 112.715 30.3994ZM224.492 30.3994C222.092 30.3994 219.992 30.9664 218.192 32.0996C216.459 33.1662 215.126 34.8331 214.192 37.0996C213.754 38.1336 213.42 39.3006 213.188 40.5996H235.254C235.037 39.3128 234.717 38.1459 234.292 37.0996C233.492 34.8997 232.258 33.2329 230.592 32.0996C228.992 30.9664 226.959 30.3994 224.492 30.3994Z" fill="black"/>
</svg>
