<svg width="23" height="23" viewBox="0 0 23 23" fill="none" xmlns="http://www.w3.org/2000/svg">
<path d="M7.375 1V4M15.375 1V4M13.375 9C13.375 10.1046 12.4796 11 11.375 11C10.2704 11 9.375 10.1046 9.375 9C9.375 7.89543 10.2704 7 11.375 7C12.4796 7 13.375 7.89543 13.375 9ZM8.375 17H14.375C14.9273 17 15.375 16.5523 15.375 16V16C15.375 14.8954 14.4796 14 13.375 14H9.375C8.27043 14 7.375 14.8954 7.375 16V16C7.375 16.5523 7.82272 17 8.375 17ZM10.975 22H11.775C15.1353 22 16.8155 22 18.0989 21.346C19.2279 20.7708 20.1458 19.8529 20.721 18.7239C21.375 17.4405 21.375 15.7603 21.375 12.4V11.6C21.375 8.23969 21.375 6.55953 20.721 5.27606C20.1458 4.14708 19.2279 3.2292 18.0989 2.65396C16.8155 2 15.1353 2 11.775 2H10.975C7.61469 2 5.93453 2 4.65106 2.65396C3.52208 3.2292 2.6042 4.14708 2.02896 5.27606C1.375 6.55953 1.375 8.23969 1.375 11.6V12.4C1.375 15.7603 1.375 17.4405 2.02896 18.7239C2.6042 19.8529 3.52208 20.7708 4.65106 21.346C5.93453 22 7.61469 22 10.975 22Z" stroke="black" stroke-width="1.5" stroke-linecap="round" stroke-linejoin="round"/>
</svg>
